<svg width="108" height="71" viewBox="0 0 108 71" fill="none" xmlns="http://www.w3.org/2000/svg">
<path d="M52.9081 9.15625H30.9706V70H22.0175V9.15625H0.126877V1.75H52.9081V9.15625ZM82.3925 39.5781C74.6738 37.3594 69.0488 34.6406 65.5175 31.4219C62.0175 28.1719 60.2675 24.1719 60.2675 19.4219C60.2675 14.0469 62.4081 9.60938 66.6894 6.10938C71.0019 2.57813 76.5956 0.8125 83.4706 0.8125C88.1581 0.8125 92.33 1.71875 95.9863 3.53125C99.6738 5.34375 102.518 7.84375 104.518 11.0312C106.549 14.2188 107.564 17.7031 107.564 21.4844H98.5175C98.5175 17.3594 97.205 14.125 94.58 11.7812C91.955 9.40625 88.2519 8.21875 83.4706 8.21875C79.0331 8.21875 75.5644 9.20312 73.0644 11.1719C70.5956 13.1094 69.3613 15.8125 69.3613 19.2812C69.3613 22.0625 70.5331 24.4219 72.8769 26.3594C75.2519 28.2656 79.2675 30.0156 84.9238 31.6094C90.6113 33.2031 95.0488 34.9688 98.2363 36.9062C101.455 38.8125 103.83 41.0469 105.361 43.6094C106.924 46.1719 107.705 49.1875 107.705 52.6562C107.705 58.1875 105.549 62.625 101.236 65.9688C96.9238 69.2812 91.1581 70.9375 83.9394 70.9375C79.2519 70.9375 74.8769 70.0469 70.8144 68.2656C66.7519 66.4531 63.6113 63.9844 61.3925 60.8594C59.205 57.7344 58.1113 54.1875 58.1113 50.2188H67.1581C67.1581 54.3438 68.6738 57.6094 71.705 60.0156C74.7675 62.3906 78.8456 63.5781 83.9394 63.5781C88.6894 63.5781 92.33 62.6094 94.8613 60.6719C97.3925 58.7344 98.6581 56.0938 98.6581 52.75C98.6581 49.4062 97.4863 46.8281 95.1425 45.0156C92.7988 43.1719 88.5488 41.3594 82.3925 39.5781Z" fill="#EA548D"/>
</svg>
